<?xml version="1.0" encoding="utf-8"?>
<!-- Generator: Adobe Illustrator 24.0.0, SVG Export Plug-In . SVG Version: 6.00 Build 0)  -->
<svg version="1.1" xmlns="http://www.w3.org/2000/svg" xmlns:xlink="http://www.w3.org/1999/xlink" x="0px" y="0px"
	 viewBox="0 0 1200 600" style="enable-background:new 0 0 1200 600;" xml:space="preserve">
<style type="text/css">
	.st0{fill:url(#SVGID_1_);}
	.st1{opacity:4.000000e-02;fill:url(#SVGID_2_);}
	.st2{opacity:0.13;fill:url(#SVGID_3_);}
	.st3{opacity:0.39;fill:url(#SVGID_4_);}
	.st4{opacity:0.1;fill:url(#SVGID_5_);}
	.st5{opacity:0.55;}
	.st6{fill:#FFFFFF;}
	.st7{fill:#F2F6F9;}
	.st8{fill:url(#SVGID_6_);}
	.st9{fill:url(#SVGID_7_);}
	.st10{fill:url(#SVGID_8_);}
	.st11{fill:url(#SVGID_9_);}
	.st12{fill:url(#SVGID_10_);}
	.st13{fill:url(#SVGID_11_);}
	.st14{fill:url(#SVGID_12_);}
	.st15{fill:url(#SVGID_13_);}
	.st16{fill:url(#SVGID_14_);}
	.st17{fill:url(#SVGID_15_);}
	.st18{fill:url(#SVGID_16_);}
	.st19{fill:url(#SVGID_17_);}
	.st20{fill:url(#SVGID_18_);}
	.st21{fill:url(#SVGID_19_);}
	.st22{fill:url(#SVGID_20_);}
	.st23{opacity:0.34;fill:#004D8E;}
	.st24{opacity:0.49;fill:#004D8E;}
	.st25{fill:#1C619A;}
	.st26{fill:url(#SVGID_21_);}
	.st27{fill:url(#SVGID_22_);}
	.st28{fill:url(#SVGID_23_);}
	.st29{opacity:6.000000e-02;fill:#004D8E;}
	.st30{fill:url(#SVGID_24_);}
	.st31{fill:url(#SVGID_25_);}
	.st32{fill:url(#SVGID_26_);}
	.st33{fill:url(#SVGID_27_);}
	.st34{fill:url(#SVGID_28_);}
	.st35{fill:url(#SVGID_29_);}
	.st36{fill:url(#SVGID_30_);}
	.st37{fill:url(#SVGID_31_);}
	.st38{fill:url(#SVGID_32_);}
	.st39{fill:url(#SVGID_33_);}
	.st40{fill:url(#SVGID_34_);}
	.st41{fill:url(#SVGID_35_);}
	.st42{fill:url(#SVGID_36_);}
	.st43{fill:url(#SVGID_37_);}
	.st44{fill:url(#SVGID_38_);}
	.st45{fill:url(#SVGID_39_);}
	.st46{fill:url(#SVGID_40_);}
	.st47{fill:url(#SVGID_41_);}
	.st48{fill:url(#SVGID_42_);}
	.st49{opacity:0.19;fill:#004D8E;}
	.st50{opacity:0.5;fill:url(#SVGID_43_);}
	.st51{opacity:0.48;fill:url(#SVGID_44_);}
	.st52{opacity:0.32;fill:url(#SVGID_45_);}
	.st53{opacity:0.68;fill:url(#SVGID_46_);}
	.st54{opacity:0.68;fill:url(#SVGID_47_);}
</style>
<g id="BG">
	
		<radialGradient id="SVGID_1_" cx="-715.4782" cy="661.8162" r="2182.3706" gradientTransform="matrix(1.2587 0 0 1 193.8408 0)" gradientUnits="userSpaceOnUse">
		<stop  offset="0" style="stop-color:#FFFFFF"/>
		<stop  offset="0.3566" style="stop-color:#E3EBF3"/>
		<stop  offset="0.9931" style="stop-color:#2969A0"/>
	</radialGradient>
	<rect x="0.3" y="0" class="st0" width="1199.4" height="600"/>
</g>
<g id="Artwork">
	<radialGradient id="SVGID_2_" cx="661.3068" cy="-13.8497" r="875.6639" gradientUnits="userSpaceOnUse">
		<stop  offset="0" style="stop-color:#FFFFFF"/>
		<stop  offset="0.3566" style="stop-color:#E3EBF3"/>
		<stop  offset="0.9926" style="stop-color:#2969A0;stop-opacity:0.4"/>
	</radialGradient>
	<path class="st1" d="M903,120.2c0,0.6-0.1,1.2-0.2,1.8H767.5c-0.7-2.1-1.1-4.3-1.1-6.6c0-9.2,6.2-16.9,14.6-19.2
		c-0.7-1.4-1.1-2.9-1.1-4.5c0-5.5,4.5-10,10-10c1.6,0,3.2,0.4,4.5,1.1c6-11.6,18.1-19.5,32.1-19.5c15.4,0,28.5,9.6,33.7,23.1
		c2.5-0.8,5.1-1.2,7.8-1.2c13.9,0,25.1,11.3,25.1,25.1C898.5,110.2,903,114.7,903,120.2z"/>
	<radialGradient id="SVGID_3_" cx="126.7583" cy="-31.7576" r="929.8104" gradientUnits="userSpaceOnUse">
		<stop  offset="0" style="stop-color:#FFFFFF"/>
		<stop  offset="0.3566" style="stop-color:#E3EBF3"/>
		<stop  offset="0.9926" style="stop-color:#2969A0;stop-opacity:0.4"/>
	</radialGradient>
	<path class="st2" d="M383.4,110.6c0,0.6-0.1,1.3-0.2,1.9H239.5c-0.8-2.2-1.2-4.6-1.2-7c0-9.7,6.5-17.9,15.5-20.4
		c-0.7-1.4-1.1-3.1-1.1-4.8c0-5.9,4.7-10.6,10.6-10.6c1.7,0,3.4,0.4,4.8,1.1c6.4-12.3,19.2-20.7,34-20.7c16.3,0,30.2,10.2,35.8,24.6
		c2.6-0.9,5.4-1.3,8.3-1.3c14.7,0,26.7,11.9,26.7,26.7C378.7,100,383.4,104.7,383.4,110.6z"/>
	<radialGradient id="SVGID_4_" cx="123.2197" cy="42.5829" r="583.5742" gradientUnits="userSpaceOnUse">
		<stop  offset="0" style="stop-color:#FFFFFF"/>
		<stop  offset="0.3566" style="stop-color:#E3EBF3"/>
		<stop  offset="0.9926" style="stop-color:#2969A0;stop-opacity:0.4"/>
	</radialGradient>
	<path class="st3" d="M284.3,131.9c0,0.4,0,0.8-0.1,1.2H194c-0.5-1.4-0.7-2.9-0.7-4.4c0-6.1,4.1-11.3,9.7-12.8
		c-0.5-0.9-0.7-1.9-0.7-3c0-3.7,3-6.7,6.7-6.7c1.1,0,2.1,0.3,3,0.7c4-7.7,12.1-13,21.4-13c10.2,0,19,6.4,22.4,15.4
		c1.6-0.5,3.4-0.8,5.2-0.8c9.2,0,16.7,7.5,16.7,16.7C281.3,125.3,284.3,128.3,284.3,131.9z"/>
	<radialGradient id="SVGID_5_" cx="647.8158" cy="-1.7035" r="497.1958" gradientUnits="userSpaceOnUse">
		<stop  offset="0" style="stop-color:#FFFFFF"/>
		<stop  offset="0.3566" style="stop-color:#E3EBF3"/>
		<stop  offset="0.9926" style="stop-color:#2969A0;stop-opacity:0.4"/>
	</radialGradient>
	<path class="st4" d="M785.1,74.4c0,0.3,0,0.7-0.1,1h-76.9c-0.4-1.2-0.6-2.4-0.6-3.8c0-5.2,3.5-9.6,8.3-10.9
		c-0.4-0.8-0.6-1.6-0.6-2.6c0-3.1,2.5-5.7,5.7-5.7c0.9,0,1.8,0.2,2.6,0.6c3.4-6.6,10.3-11.1,18.2-11.1c8.7,0,16.2,5.5,19.1,13.1
		c1.4-0.5,2.9-0.7,4.4-0.7c7.9,0,14.3,6.4,14.3,14.3C782.5,68.7,785.1,71.3,785.1,74.4z"/>
	<g>
		<g class="st5">
			<polygon class="st6" points="581.1,140.6 546,110.4 546.2,110.3 581.1,80.2 581.3,80.4 546.6,110.4 581.3,140.4 			"/>
		</g>
		<g class="st5">
			<polygon class="st6" points="598.7,140.6 563.7,110.4 563.8,110.3 598.7,80.2 598.9,80.4 564.2,110.4 598.9,140.4 			"/>
		</g>
	</g>
	<g>
		<g class="st5">
			<polygon class="st6" points="550.6,415.5 536.5,403.3 536.5,403.2 550.6,391.1 550.7,391.2 536.7,403.3 550.7,415.3 			"/>
		</g>
		<g class="st5">
			<polygon class="st6" points="557.7,415.5 543.6,403.3 543.7,403.2 557.7,391.1 557.8,391.2 543.8,403.3 557.8,415.3 			"/>
		</g>
	</g>
	<g>
		<g class="st5">
			<polygon class="st6" points="473.1,165.9 465.1,158.9 465.2,158.9 473.1,152 473.2,152.1 465.2,158.9 473.2,165.8 			"/>
		</g>
		<g class="st5">
			<polygon class="st6" points="477.2,165.9 469.2,158.9 469.2,158.9 477.2,152 477.2,152.1 469.3,158.9 477.2,165.8 			"/>
		</g>
	</g>
	<g>
		<g class="st5">
			<polygon class="st6" points="459.3,442.1 431.9,418.4 432,418.3 459.3,394.7 459.5,394.9 432.3,418.4 459.5,441.9 			"/>
		</g>
		<g class="st5">
			<polygon class="st6" points="473.2,442.1 445.7,418.4 445.8,418.3 473.2,394.7 473.3,394.9 446.1,418.4 473.3,441.9 			"/>
		</g>
	</g>
	<g>
		<g>
			<rect x="336.6" y="382.7" class="st7" width="0.9" height="0.4"/>
		</g>
		<g>
			<path class="st7" d="M642.9,383H641v-0.4h1.8V383z M639.2,383h-1.8v-0.4h1.8V383z M635.6,383h-1.8v-0.4h1.8V383z M632,383h-1.8
				v-0.4h1.8V383z M628.3,383h-1.8v-0.4h1.8V383z M624.7,383h-1.8v-0.4h1.8V383z M621.1,383h-1.8v-0.4h1.8V383z M617.4,383h-1.8
				v-0.4h1.8V383z M613.8,383H612v-0.4h1.8V383z M610.1,383h-1.8v-0.4h1.8V383z M606.5,383h-1.8v-0.4h1.8V383z M602.9,383h-1.8v-0.4
				h1.8V383z M599.2,383h-1.8v-0.4h1.8V383z M595.6,383h-1.8v-0.4h1.8V383z M592,383h-1.8v-0.4h1.8V383z M588.3,383h-1.8v-0.4h1.8
				V383z M584.7,383h-1.8v-0.4h1.8V383z M581.1,383h-1.8v-0.4h1.8V383z M577.4,383h-1.8v-0.4h1.8V383z M573.8,383H572v-0.4h1.8V383z
				 M570.2,383h-1.8v-0.4h1.8V383z M566.5,383h-1.8v-0.4h1.8V383z M562.9,383h-1.8v-0.4h1.8V383z M559.3,383h-1.8v-0.4h1.8V383z
				 M555.6,383h-1.8v-0.4h1.8V383z M552,383h-1.8v-0.4h1.8V383z M548.4,383h-1.8v-0.4h1.8V383z M544.7,383h-1.8v-0.4h1.8V383z
				 M541.1,383h-1.8v-0.4h1.8V383z M537.5,383h-1.8v-0.4h1.8V383z M533.8,383H532v-0.4h1.8V383z M530.2,383h-1.8v-0.4h1.8V383z
				 M526.5,383h-1.8v-0.4h1.8V383z M522.9,383h-1.8v-0.4h1.8V383z M519.3,383h-1.8v-0.4h1.8V383z M515.6,383h-1.8v-0.4h1.8V383z
				 M512,383h-1.8v-0.4h1.8V383z M508.4,383h-1.8v-0.4h1.8V383z M504.7,383h-1.8v-0.4h1.8V383z M501.1,383h-1.8v-0.4h1.8V383z
				 M497.5,383h-1.8v-0.4h1.8V383z M493.8,383H492v-0.4h1.8V383z M490.2,383h-1.8v-0.4h1.8V383z M486.6,383h-1.8v-0.4h1.8V383z
				 M482.9,383h-1.8v-0.4h1.8V383z M479.3,383h-1.8v-0.4h1.8V383z M475.7,383h-1.8v-0.4h1.8V383z M472,383h-1.8v-0.4h1.8V383z
				 M468.4,383h-1.8v-0.4h1.8V383z M464.8,383h-1.8v-0.4h1.8V383z M461.1,383h-1.8v-0.4h1.8V383z M457.5,383h-1.8v-0.4h1.8V383z
				 M453.8,383H452v-0.4h1.8V383z M450.2,383h-1.8v-0.4h1.8V383z M446.6,383h-1.8v-0.4h1.8V383z M442.9,383h-1.8v-0.4h1.8V383z
				 M439.3,383h-1.8v-0.4h1.8V383z M435.7,383h-1.8v-0.4h1.8V383z M432,383h-1.8v-0.4h1.8V383z M428.4,383h-1.8v-0.4h1.8V383z
				 M424.8,383h-1.8v-0.4h1.8V383z M421.1,383h-1.8v-0.4h1.8V383z M417.5,383h-1.8v-0.4h1.8V383z M413.9,383H412v-0.4h1.8V383z
				 M410.2,383h-1.8v-0.4h1.8V383z M406.6,383h-1.8v-0.4h1.8V383z M403,383h-1.8v-0.4h1.8V383z M399.3,383h-1.8v-0.4h1.8V383z
				 M395.7,383h-1.8v-0.4h1.8V383z M392.1,383h-1.8v-0.4h1.8V383z M388.4,383h-1.8v-0.4h1.8V383z M384.8,383H383v-0.4h1.8V383z
				 M381.1,383h-1.8v-0.4h1.8V383z M377.5,383h-1.8v-0.4h1.8V383z M373.9,383h-1.8v-0.4h1.8V383z M370.2,383h-1.8v-0.4h1.8V383z
				 M366.6,383h-1.8v-0.4h1.8V383z M363,383h-1.8v-0.4h1.8V383z M359.3,383h-1.8v-0.4h1.8V383z M355.7,383h-1.8v-0.4h1.8V383z
				 M352.1,383h-1.8v-0.4h1.8V383z M348.4,383h-1.8v-0.4h1.8V383z M344.8,383H343v-0.4h1.8V383z M341.2,383h-1.8v-0.4h1.8V383z"/>
		</g>
		<g>
			<rect x="644.7" y="382.7" class="st7" width="0.9" height="0.4"/>
		</g>
	</g>
	<g>
		<g>
			<linearGradient id="SVGID_6_" gradientUnits="userSpaceOnUse" x1="1217.2236" y1="578.3005" x2="1060.5254" y2="497.472">
				<stop  offset="2.630244e-04" style="stop-color:#6996BC"/>
				<stop  offset="0.9992" style="stop-color:#2969A0"/>
			</linearGradient>
			<polygon class="st8" points="1060.5,446.6 1165.1,456 1147.7,600 1074.3,600 			"/>
			<linearGradient id="SVGID_7_" gradientUnits="userSpaceOnUse" x1="769.7723" y1="366.1673" x2="921.5299" y2="523.21">
				<stop  offset="2.630244e-04" style="stop-color:#6996BC"/>
				<stop  offset="0.9992" style="stop-color:#2969A0"/>
			</linearGradient>
			<polygon class="st9" points="851,404 898.7,600 953.9,600 940.2,442.1 			"/>
			<linearGradient id="SVGID_8_" gradientUnits="userSpaceOnUse" x1="947.3929" y1="383.556" x2="1355.8219" y2="535.7599">
				<stop  offset="2.630244e-04" style="stop-color:#6996BC"/>
				<stop  offset="0.9992" style="stop-color:#2969A0"/>
			</linearGradient>
			<polygon class="st10" points="1151.3,404 851,404 940.2,442.1 915,442.1 952.7,459.1 1085.9,459.1 1060.5,446.6 1199.7,459.1 
				1199.7,404 			"/>
			<linearGradient id="SVGID_9_" gradientUnits="userSpaceOnUse" x1="850.1552" y1="422.7705" x2="957.1108" y2="533.451">
				<stop  offset="2.630244e-04" style="stop-color:#6996BC"/>
				<stop  offset="0.9992" style="stop-color:#2969A0"/>
			</linearGradient>
			<polygon class="st11" points="952.7,459.1 967.1,600 953.9,600 915,442.1 			"/>
			<linearGradient id="SVGID_10_" gradientUnits="userSpaceOnUse" x1="904.8286" y1="403.6577" x2="1037.5422" y2="540.9932">
				<stop  offset="2.630244e-04" style="stop-color:#6996BC"/>
				<stop  offset="0.9992" style="stop-color:#2969A0"/>
			</linearGradient>
			<polygon class="st12" points="1085.9,459.1 1074.3,600 967.1,600 952.7,459.1 			"/>
			<linearGradient id="SVGID_11_" gradientUnits="userSpaceOnUse" x1="1390.7632" y1="687.6106" x2="1091.6962" y2="469.8176">
				<stop  offset="2.630244e-04" style="stop-color:#6996BC"/>
				<stop  offset="0.9992" style="stop-color:#2969A0"/>
			</linearGradient>
			<polygon class="st13" points="1165.1,456 1147.7,600 1199.7,600 1199.7,459.1 			"/>
			<linearGradient id="SVGID_12_" gradientUnits="userSpaceOnUse" x1="998.3271" y1="474.5387" x2="1065.6357" y2="535.7284">
				<stop  offset="2.630244e-04" style="stop-color:#6996BC"/>
				<stop  offset="0.9992" style="stop-color:#2969A0"/>
			</linearGradient>
			<polygon class="st14" points="1012.2,502 987.6,495.4 1043.4,495.4 1062.3,502 			"/>
			<linearGradient id="SVGID_13_" gradientUnits="userSpaceOnUse" x1="908.7216" y1="471.8349" x2="1094.3252" y2="627.6568">
				<stop  offset="2.630244e-04" style="stop-color:#6996BC"/>
				<stop  offset="0.9992" style="stop-color:#2969A0"/>
			</linearGradient>
			<polygon class="st15" points="987.6,495.4 993.9,600 1015.9,600 1012.2,502 			"/>
			<linearGradient id="SVGID_14_" gradientUnits="userSpaceOnUse" x1="764.4814" y1="511.2141" x2="1188.454" y2="574.4734">
				<stop  offset="2.630244e-04" style="stop-color:#6996BC"/>
				<stop  offset="0.9992" style="stop-color:#2969A0"/>
			</linearGradient>
			<polygon class="st16" points="880,523.3 843,523.3 882.6,534 			"/>
			<linearGradient id="SVGID_15_" gradientUnits="userSpaceOnUse" x1="795.4827" y1="521.1868" x2="922.9279" y2="594.9968">
				<stop  offset="2.630244e-04" style="stop-color:#6996BC"/>
				<stop  offset="0.9992" style="stop-color:#2969A0"/>
			</linearGradient>
			<polygon class="st17" points="843,523.3 866.5,600 898.7,600 882.6,534 			"/>
		</g>
		<g>
			<g>
				<g>
					<g>
						<radialGradient id="SVGID_16_" cx="910.3909" cy="106.39" r="14.7817" gradientUnits="userSpaceOnUse">
							<stop  offset="0" style="stop-color:#FFFFFF"/>
							<stop  offset="0.9986" style="stop-color:#3D78A9"/>
						</radialGradient>
						<polygon class="st18" points="912.2,118.9 912.2,113.5 919.3,113.5 919.3,117.7 						"/>
						<linearGradient id="SVGID_17_" gradientUnits="userSpaceOnUse" x1="883.5981" y1="116.7475" x2="963.7209" y2="173.5534">
							<stop  offset="2.631539e-04" style="stop-color:#BFD3E3"/>
							<stop  offset="0.9992" style="stop-color:#2969A0"/>
						</linearGradient>
						<path class="st19" d="M972.3,142.2l-48.6,20.7c0,0,0-24.3-5-41.5h-8.8c0,0-4.7,54.7,9,57.3c13.8,2.6,50.7-8.3,50.7-8.3
							L972.3,142.2z"/>
						<g>
							<linearGradient id="SVGID_18_" gradientUnits="userSpaceOnUse" x1="911.0256" y1="102.0175" x2="961.0242" y2="120.3268">
								<stop  offset="2.630244e-04" style="stop-color:#6996BC"/>
								<stop  offset="0.9992" style="stop-color:#2969A0"/>
							</linearGradient>
							<rect x="916.5" y="108.4" class="st20" width="40.9" height="6.1"/>
							<linearGradient id="SVGID_19_" gradientUnits="userSpaceOnUse" x1="944.5262" y1="116.9681" x2="882.791" y2="108.283">
								<stop  offset="2.630244e-04" style="stop-color:#6996BC"/>
								<stop  offset="0.9992" style="stop-color:#2969A0"/>
							</linearGradient>
							<rect x="876.9" y="107.2" class="st21" width="57.4" height="8.6"/>
							<linearGradient id="SVGID_20_" gradientUnits="userSpaceOnUse" x1="905.9458" y1="114.3627" x2="782.71" y2="104.9733">
								<stop  offset="2.630244e-04" style="stop-color:#6996BC"/>
								<stop  offset="0.9992" style="stop-color:#2969A0"/>
							</linearGradient>
							<rect x="841.6" y="105.8" class="st22" width="53.4" height="11.3"/>
							<rect x="894.9" y="107.2" class="st23" width="3.8" height="8.6"/>
							<rect x="934.3" y="108.4" class="st24" width="3.8" height="6.1"/>
						</g>
						<polygon class="st25" points="1028.7,409.4 1027,403.3 1034.9,406.6 						"/>
						<linearGradient id="SVGID_21_" gradientUnits="userSpaceOnUse" x1="945.3576" y1="344.1466" x2="1220.4668" y2="425.3649">
							<stop  offset="0" style="stop-color:#1C619A"/>
							<stop  offset="0.9992" style="stop-color:#2969A0"/>
						</linearGradient>
						<path class="st26" d="M1004,323.3c0,0,31.5,34.4,32.4,83.3h-8.9l-34.6-61.4L1004,323.3z"/>
						<path class="st25" d="M991.2,415.6c0,0-4.9,5.9-16.9,7.7c0,0-1.3,0.9,0,2h16.9l3.8-1.7l0.7,1.7h3.8c0,0,1.7-5.7-1.5-9.6H991.2
							z"/>
						<path class="st25" d="M1028.7,409.4c0,0-2.1,7.4-12.1,14c0,0-0.8,1.4,0.8,1.8l15.3-7l2.7-3.1l1.3,1.3l3.5-1.6
							c0,0-0.8-5.9-5.3-8.2L1028.7,409.4z"/>
						<linearGradient id="SVGID_22_" gradientUnits="userSpaceOnUse" x1="901.6016" y1="155.8257" x2="989.8619" y2="315.9149">
							<stop  offset="0" style="stop-color:#1C619A"/>
							<stop  offset="0.9992" style="stop-color:#2969A0"/>
						</linearGradient>
						<path class="st27" d="M977,234.7L988.3,417h11.8c0,0,16.4-38,2-77.8c0,0,20.8-71.5,12.2-82.8c-8.6-11.3-36.9-39.6-36.9-39.6
							L977,234.7z"/>
						<g>
							<radialGradient id="SVGID_23_" cx="949.2787" cy="111.7106" r="67.0004" gradientUnits="userSpaceOnUse">
								<stop  offset="0" style="stop-color:#FFFFFF"/>
								<stop  offset="0.9986" style="stop-color:#3D78A9"/>
							</radialGradient>
							<polygon class="st28" points="985.2,110.4 990.9,140.4 974.8,140.4 974.8,120.4 							"/>
							<path class="st29" d="M974.8,125.4v6.8c0,0,11.8-5.9,12.1-12.8l-1.7-9L974.8,125.4z"/>
							<radialGradient id="SVGID_24_" cx="958.6681" cy="123.6821" r="55.3024" gradientUnits="userSpaceOnUse">
								<stop  offset="0" style="stop-color:#FFFFFF"/>
								<stop  offset="0.9986" style="stop-color:#3D78A9"/>
							</radialGradient>
							<path class="st30" d="M985.1,106.3c0,0,3,20.3-15.5,20v-28C969.6,98.4,981.8,95.5,985.1,106.3z"/>
							<linearGradient id="SVGID_25_" gradientUnits="userSpaceOnUse" x1="930.6561" y1="61.4398" x2="1017.5079" y2="139.3718">
								<stop  offset="2.630244e-04" style="stop-color:#6996BC"/>
								<stop  offset="0.9992" style="stop-color:#2969A0"/>
							</linearGradient>
							<path class="st31" d="M984.2,99.2c0,0-4-5.6-10.6-5.7c0,0,0,0,0,0s-3.8-0.6-9,2.8l1.9,0.3c0,0-2,2.6-4.1-0.2
								c0,0-2.5,5.7,3.5,5.7h3.7l10.8-0.3l1.7,4.3v9.4h1.4l0.6-8.4l2.9,12.4C991.1,99.6,984.2,99.2,984.2,99.2z"/>
							<radialGradient id="SVGID_26_" cx="990.7485" cy="105.5293" r="20.7697" gradientUnits="userSpaceOnUse">
								<stop  offset="0" style="stop-color:#FFFFFF"/>
								<stop  offset="0.9986" style="stop-color:#3D78A9"/>
							</radialGradient>
							<path class="st32" d="M984.1,106.9c0,0,2.3-1.2,3.3,0.4c1.1,1.8-1,5.9-3.8,6.4L984.1,106.9z"/>
						</g>
						<linearGradient id="SVGID_27_" gradientUnits="userSpaceOnUse" x1="811.1135" y1="208.0408" x2="1026.7922" y2="201.2275">
							<stop  offset="2.631539e-04" style="stop-color:#BFD3E3"/>
							<stop  offset="0.9992" style="stop-color:#2969A0"/>
						</linearGradient>
						<path class="st33" d="M1027.6,266.2l-19.2-52.7c4.1-39.3,10.8-64.1,10.8-64.1l-26.3-12.1l-19.1,3.5l0,0.1l0-0.1l-6,3.2
							c0,0-8.7,47.7,9.2,90.7l0.9-5.6C990.2,252.9,1027.6,266.2,1027.6,266.2z"/>
						<linearGradient id="SVGID_28_" gradientUnits="userSpaceOnUse" x1="953.7547" y1="119.2325" x2="1069.7136" y2="195.2866">
							<stop  offset="2.631539e-04" style="stop-color:#BFD3E3"/>
							<stop  offset="0.9992" style="stop-color:#2969A0"/>
						</linearGradient>
						<polygon class="st34" points="989.6,133.2 977.4,140.4 984.3,148.8 992.9,137.3 						"/>
						<linearGradient id="SVGID_29_" gradientUnits="userSpaceOnUse" x1="939.6941" y1="119.0115" x2="1034.0575" y2="183.7983">
							<stop  offset="2.631539e-04" style="stop-color:#BFD3E3"/>
							<stop  offset="0.9992" style="stop-color:#2969A0"/>
						</linearGradient>
						<polygon class="st35" points="977.4,140.4 974.8,137.9 972.3,142.2 972.3,146.5 						"/>
						<linearGradient id="SVGID_30_" gradientUnits="userSpaceOnUse" x1="945.1954" y1="167.2509" x2="1072.4216" y2="211.9678">
							<stop  offset="0" style="stop-color:#D4E1EC"/>
							<stop  offset="0.9992" style="stop-color:#9EBBD4"/>
						</linearGradient>
						<path class="st36" d="M984.3,148.8c0,0-9.7,39.6-6.9,68c0,0-9.2-32-5.2-70.2l5.2-6.2L984.3,148.8z"/>
						<linearGradient id="SVGID_31_" gradientUnits="userSpaceOnUse" x1="970.6813" y1="149.6647" x2="991.338" y2="135.8153">
							<stop  offset="2.630244e-04" style="stop-color:#6996BC"/>
							<stop  offset="0.9992" style="stop-color:#2969A0"/>
						</linearGradient>
						<polygon class="st37" points="977.4,140.4 973.8,144.7 975.6,149.7 977.8,149.7 980.9,144.6 						"/>
						<linearGradient id="SVGID_32_" gradientUnits="userSpaceOnUse" x1="941.9413" y1="153.0326" x2="1058.6046" y2="275.5642">
							<stop  offset="2.630244e-04" style="stop-color:#6996BC"/>
							<stop  offset="0.9992" style="stop-color:#2969A0"/>
						</linearGradient>
						<path class="st38" d="M977.8,149.7c0,0,1.9,50.2,22.4,83.1l-4.8,11.5l-7-1.6c0,0-21.2-42.4-12.7-93H977.8z"/>
						<linearGradient id="SVGID_33_" gradientUnits="userSpaceOnUse" x1="914.6323" y1="113.0354" x2="1005.7094" y2="194.7232">
							<stop  offset="2.631539e-04" style="stop-color:#BFD3E3"/>
							<stop  offset="0.9992" style="stop-color:#2969A0"/>
						</linearGradient>
						<path class="st39" d="M1019.2,149.4l-57.4,38.3c0,0,1.8-33.7-12.2-66.4h-9.5c0,0-1.4,88.6,19.9,86.7s52.3-24.4,52.3-24.4
							S1021,167.2,1019.2,149.4z"/>
						<linearGradient id="SVGID_34_" gradientUnits="userSpaceOnUse" x1="942.9755" y1="118.9668" x2="958.1159" y2="146.4308">
							<stop  offset="2.631539e-04" style="stop-color:#BFD3E3"/>
							<stop  offset="0.9994" style="stop-color:#82A8C8"/>
						</linearGradient>
						<rect x="939.2" y="121.3" class="st40" width="12.7" height="4.6"/>
						<radialGradient id="SVGID_35_" cx="950.0612" cy="104.0426" r="21.8002" gradientUnits="userSpaceOnUse">
							<stop  offset="0" style="stop-color:#FFFFFF"/>
							<stop  offset="0.9986" style="stop-color:#3D78A9"/>
						</radialGradient>
						<path class="st41" d="M948.8,121.3c0,0,3.8-2.8,3.8-6.6c0-3.8,0-3.8,0-3.8s-1.6,0.5-1.6,2.6V107h-8.7c0,0-2.2,1.7-2.2,5.4
							s0,8.8,0,8.8H948.8z"/>
						<radialGradient id="SVGID_36_" cx="919.7021" cy="104.4338" r="37.0794" gradientUnits="userSpaceOnUse">
							<stop  offset="0" style="stop-color:#FFFFFF"/>
							<stop  offset="0.9986" style="stop-color:#3D78A9"/>
						</radialGradient>
						<path class="st42" d="M918.6,121.3c0,0,2.5-1.3,2.3-7.7v-1.4c0,0-1.8,0.3-1.7,2.3c0.1,2-0.1,1.6-0.1,1.6s-7-0.1-7,2.8
							c0,2.4,0,2.4,0,2.4H918.6z"/>
						<radialGradient id="SVGID_37_" cx="909.2955" cy="101.6953" r="26.1233" gradientUnits="userSpaceOnUse">
							<stop  offset="0" style="stop-color:#FFFFFF"/>
							<stop  offset="0.9986" style="stop-color:#3D78A9"/>
						</radialGradient>
						<path class="st43" d="M919.1,106.8v2.6c0,0-2.1,0.7-2.1-2.6H919.1z"/>
						<radialGradient id="SVGID_38_" cx="909.2955" cy="101.6953" r="26.1233" gradientUnits="userSpaceOnUse">
							<stop  offset="0" style="stop-color:#FFFFFF"/>
							<stop  offset="0.9986" style="stop-color:#3D78A9"/>
						</radialGradient>
						<path class="st44" d="M917.2,106.8v2.6c0,0-2.1,0.7-2.1-2.6H917.2z"/>
						<radialGradient id="SVGID_39_" cx="909.2955" cy="101.6953" r="26.1233" gradientUnits="userSpaceOnUse">
							<stop  offset="0" style="stop-color:#FFFFFF"/>
							<stop  offset="0.9986" style="stop-color:#3D78A9"/>
						</radialGradient>
						<path class="st45" d="M915.4,106.8v2.6c0,0-2.1,0.7-2.1-2.6H915.4z"/>
						<radialGradient id="SVGID_40_" cx="909.2955" cy="101.6953" r="26.1233" gradientUnits="userSpaceOnUse">
							<stop  offset="0" style="stop-color:#FFFFFF"/>
							<stop  offset="0.9986" style="stop-color:#3D78A9"/>
						</radialGradient>
						<path class="st46" d="M913.9,106.8v2.6c0,0-2.1,0.7-2.1-2.6H913.9z"/>
					</g>
					<linearGradient id="SVGID_41_" gradientUnits="userSpaceOnUse" x1="835.7268" y1="106.9193" x2="871.9542" y2="127.889">
						<stop  offset="2.630244e-04" style="stop-color:#6996BC"/>
						<stop  offset="0.9992" style="stop-color:#2969A0"/>
					</linearGradient>
					<path class="st47" d="M845.6,104.7h-4v13.6h4c0.8,0,1.4-3,1.4-6.8C847,107.7,846.4,104.7,845.6,104.7z"/>
					<ellipse class="st6" cx="841.6" cy="111.5" rx="1.4" ry="6.8"/>
				</g>
				<linearGradient id="SVGID_42_" gradientUnits="userSpaceOnUse" x1="912.392" y1="119.3434" x2="923.8728" y2="140.1689">
					<stop  offset="2.631539e-04" style="stop-color:#BFD3E3"/>
					<stop  offset="0.9994" style="stop-color:#82A8C8"/>
				</linearGradient>
				<rect x="909.2" y="121.3" class="st48" width="10.3" height="3.1"/>
			</g>
			<polygon class="st49" points="974.4,425.7 1198.7,425.7 1174.1,421.8 			"/>
		</g>
	</g>
	<g>
		<radialGradient id="SVGID_43_" cx="205.459" cy="338.5497" r="866.0387" gradientUnits="userSpaceOnUse">
			<stop  offset="0" style="stop-color:#FFFFFF"/>
			<stop  offset="0.3566" style="stop-color:#E3EBF3"/>
			<stop  offset="0.9926" style="stop-color:#2969A0;stop-opacity:0.4"/>
		</radialGradient>
		<path class="st50" d="M710.8,595.4c0,1.6-0.1,3.1-0.4,4.6H357.2c-1.9-5.4-2.9-11.2-2.9-17.3c0-23.9,16.1-44.1,38-50.2
			c-1.8-3.5-2.8-7.5-2.8-11.8c0-14.4,11.7-26.1,26.1-26.1c4.2,0,8.2,1,11.8,2.8c15.7-30.2,47.2-50.9,83.6-50.9
			c40.1,0,74.3,25.1,87.9,60.4c6.4-2.1,13.3-3.2,20.4-3.2c36.2,0,65.6,29.4,65.6,65.6C699.2,569.3,710.8,581,710.8,595.4z"/>
		<radialGradient id="SVGID_44_" cx="542.0687" cy="439.9551" r="1163.1241" gradientUnits="userSpaceOnUse">
			<stop  offset="0" style="stop-color:#FFFFFF"/>
			<stop  offset="0.3566" style="stop-color:#E3EBF3"/>
			<stop  offset="0.9931" style="stop-color:#2969A0"/>
		</radialGradient>
		<path class="st51" d="M451,596.1c0,1.3-0.1,2.7-0.4,3.9H150.2c-1.6-4.6-2.5-9.5-2.5-14.7c0-20.3,13.7-37.5,32.3-42.7
			c-1.5-3-2.4-6.4-2.4-10c0-12.2,9.9-22.2,22.2-22.2c3.6,0,7,0.9,10,2.4c13.3-25.7,40.2-43.3,71.1-43.3c34.1,0,63.2,21.3,74.8,51.3
			c5.5-1.8,11.3-2.7,17.3-2.7c30.8,0,55.8,25,55.8,55.8C441.1,573.9,451,583.8,451,596.1z"/>
		<radialGradient id="SVGID_45_" cx="-59.3219" cy="409.9091" r="801.2212" gradientUnits="userSpaceOnUse">
			<stop  offset="0" style="stop-color:#FFFFFF"/>
			<stop  offset="0.3566" style="stop-color:#E3EBF3"/>
			<stop  offset="0.9931" style="stop-color:#2969A0"/>
		</radialGradient>
		<path class="st52" d="M223.2,594.7c0,1.8-0.2,3.6-0.5,5.3H0.3V425.8c43.7,1.7,80.7,29.6,95.7,68.5c7.3-2.4,15.1-3.7,23.2-3.7
			c41.1,0,74.5,33.3,74.5,74.5C209.9,565.1,223.2,578.4,223.2,594.7z"/>
		<radialGradient id="SVGID_46_" cx="75.2847" cy="389.432" r="1252.8584" gradientUnits="userSpaceOnUse">
			<stop  offset="0" style="stop-color:#FFFFFF"/>
			<stop  offset="0.3566" style="stop-color:#E3EBF3"/>
			<stop  offset="0.992" style="stop-color:#2969A0;stop-opacity:0"/>
		</radialGradient>
		<path class="st53" d="M438.3,600c3.2-17.7,18.6-31.1,37.2-31.1c10.1,0,19.2,3.9,26,10.3c17.3-18.4,41.9-29.8,69.2-29.8
			c27.9,0,53,12,70.4,31.1c23.6-19.4,53.8-31.1,86.8-31.1c34.1,0,65.3,12.5,89.2,33.1c13.6-20,36.6-33.1,62.6-33.1
			c33,0,61.1,21.1,71.4,50.6H438.3z"/>
		<radialGradient id="SVGID_47_" cx="332.411" cy="584.1149" r="339.6783" gradientUnits="userSpaceOnUse">
			<stop  offset="0" style="stop-color:#FFFFFF"/>
			<stop  offset="0.3566" style="stop-color:#E3EBF3"/>
			<stop  offset="0.992" style="stop-color:#2969A0;stop-opacity:0"/>
		</radialGradient>
		<path class="st54" d="M269.3,600c1.2-6.7,7.1-11.8,14.1-11.8c3.8,0,7.3,1.5,9.9,3.9c6.6-7,15.9-11.3,26.3-11.3
			c10.6,0,20.1,4.6,26.7,11.8c9-7.4,20.4-11.8,32.9-11.8c12.9,0,24.8,4.7,33.9,12.6c5.2-7.6,13.9-12.6,23.8-12.6
			c12.5,0,23.2,8,27.1,19.2H269.3z"/>
	</g>
</g>
<g id="Text">
</g>
</svg>
